# xmcd
#
# Track frame offsets:
#	150
#	23288
#	48028
#	70038
#	91038
#	112609
#	136518
#	162640
#	187690
#	204994
#
# Disc length: 3034 seconds
#
# Revision: 1288774022
# Processed by: cddbd v1.5.2PL0 Copyright (c) Steve Scherf et al.
# Submitted via: EZCDAudioConverter 8.0.2.1
#
DISCID=610bd80a
DTITLE=Phương Mỹ Chi - Quê Em Mùa Nước Lũ
DYEAR=2014
DGENRE=East Asia
TTITLE0=Phương Mỹ Chi - Câu hò điệu lý còn đây
TTITLE1=Phương Mỹ Chi - Còn thương rau đắng mọc sau hè
TTITLE2=Quang Lê - Hnhf bóng quê nhà
TTITLE3=Phương Mỹ Chi - Bà Năm
TTITLE4=Phương Mỹ Chi - Hành trình trên đất phù sa
TTITLE5=Phương Mỹ Chi - Bài ca đất Phương Nam
TTITLE6=Phương Mỹ Chi - Chị đi tìm em
TTITLE7=Phương Mỹ Chi - Quê Em Mùa Nước Lũ
TTITLE8=Phương Mỹ Chi - Áo mới Cà Mau
TTITLE9=Quang Lê - Về dưới mái nhà
EXTD=
EXTT0=
EXTT1=
EXTT2=
EXTT3=
EXTT4=
EXTT5=
EXTT6=
EXTT7=
EXTT8=
EXTT9=
PLAYORDER=
